<?xml version="1.0" standalone="no"?><!DOCTYPE svg PUBLIC "-//W3C//DTD SVG 1.1//EN" "http://www.w3.org/Graphics/SVG/1.1/DTD/svg11.dtd"><svg t="1750847281491" class="icon" viewBox="0 0 1024 1024" version="1.1" xmlns="http://www.w3.org/2000/svg" p-id="6575" xmlns:xlink="http://www.w3.org/1999/xlink" width="200" height="200"><path d="M1024 475.392h-101.546667a411.562667 411.562667 0 0 0-373.845333-373.76V0H475.306667v101.546667a409.941333 409.941333 0 0 0-254.72 119.04c-37.802667 37.802667-67.498667 81.92-88.32 130.986666-16.810667 39.594667-27.136 81.066667-30.72 123.818667H0v73.216h101.546667a411.562667 411.562667 0 0 0 373.845333 373.76V1024h73.216v-101.546667a409.941333 409.941333 0 0 0 254.72-119.04c37.802667-37.802667 67.498667-81.92 88.32-130.986666 16.810667-39.594667 27.136-81.066667 30.72-123.818667H1024V475.306667zM548.608 848.896V682.666667H475.306667v166.229333a339.626667 339.626667 0 0 1-300.373334-300.373333h166.4v-73.130667H174.933333a339.626667 339.626667 0 0 1 300.373334-300.373333v166.4h73.216V174.933333a339.626667 339.626667 0 0 1 300.373333 300.373334h-166.4v73.216h166.4a339.626667 339.626667 0 0 1-300.373333 300.373333z" fill="#ffff44" p-id="6576"></path></svg>